<?xml version="1.0" encoding="UTF-8"?>
<svg version="1.1" xmlns="http://www.w3.org/2000/svg" width="1024" height="1024">
<path d="M0 0 C337.92 0 675.84 0 1024 0 C1024 337.92 1024 675.84 1024 1024 C686.08 1024 348.16 1024 0 1024 C0 686.08 0 348.16 0 0 Z " fill="#FDFDFB" transform="translate(0,0)"/>
<path d="M0 0 C1.30739371 -0.00782324 1.30739371 -0.00782324 2.64119941 -0.01580453 C3.59437826 -0.01134309 4.54755711 -0.00688164 5.52962017 -0.002285 C7.05398749 -0.00696498 7.05398749 -0.00696498 8.60915011 -0.01173949 C12.02562562 -0.01973701 15.44192436 -0.01338857 18.8584013 -0.00710678 C21.30440151 -0.00981618 23.7504009 -0.01337683 26.19639874 -0.0177269 C32.16197475 -0.02591745 38.12748112 -0.02469247 44.09305445 -0.01890162 C48.95212921 -0.01438122 53.81118989 -0.01377389 58.67026615 -0.01594925 C59.3624746 -0.01625572 60.05468304 -0.01656218 60.7678675 -0.01687793 C62.17441355 -0.01751743 63.5809596 -0.01816586 64.98750564 -0.01882312 C78.1914907 -0.02453155 91.39544804 -0.01796468 104.59942856 -0.00722238 C115.88466005 0.00167605 127.16985028 0.00019287 138.45508099 -0.00905991 C151.58300046 -0.01981861 164.71089545 -0.02394273 177.83881873 -0.01783538 C179.24594223 -0.01719837 180.65306574 -0.01656963 182.06018925 -0.01594925 C183.09839843 -0.01548642 183.09839843 -0.01548642 184.15758154 -0.01501425 C188.99091864 -0.01330118 193.82424 -0.01617291 198.65757465 -0.02090836 C205.20340841 -0.02718065 211.74918353 -0.02256782 218.29501057 -0.01111984 C220.67999934 -0.00850553 223.06499471 -0.009182 225.44998074 -0.01364517 C237.02816509 -0.0332895 248.52351654 0.1569219 260.06572247 1.13113785 C301.99209304 5.05511752 338.50964982 25.33242671 364.05298138 54.89084244 C387.82264801 90.10049779 396.68374274 117.39770587 396.83960247 143.49386978 C397.17709838 191.8374482 386.24095628 224.11026292 364.63647747 250.25168228 C335.33715658 276.84808893 322.52943844 283.65006626 309.07397747 289.75168228 C291.63647747 295.25168228 291.63647747 295.25168228 291.63647747 295.25168228 C315.82513847 364.46487773 277.44941591 348.7168337 238.63647747 338.25168228 C162.35660836 315.13412869 141.65438007 308.69490935 130.63647747 295.25168228 C128.57372001 291.12616736 128.75425489 286.69739214 129.63647747 282.25168228 C188.63647747 226.25168228 188.63647747 226.25168228 188.63647747 226.25168228 C232.71441509 208.02730061 270.63647747 190.25168228 270.63647747 190.25168228 C288.79614544 152.22336197 285.66349621 115.29360869 273.26147747 100.62668228 C261.11690424 88.23298961 242.68920404 82.37005549 225.65143108 81.87746048 C90.63647747 84.25168228 90.63647747 84.25168228 90.63647747 84.25168228 L 90.63647747 196.25168228 C146.13647747 201.93918228 168.63647747 210.25168228 168.63647747 210.25168228 C106.12999701 222.89501986 77.25757122 232.73215103 36.57397747 246.37668228 C18.39348007 253.40513251 3.05152166 259.92083372 -11.86742878 267.55246353 C-17.36352253 269.25168228 -17.36352253 269.25168228 -17.36352253 269.25168228 L -17.36352253 6.25168228 C-9.27131482 2.46639015 -5.64721303 0.00243993 0 0 Z" fill="#488A60" transform="translate(322.36352252960205,225.74831771850586)"/>
<path d="M0 0 C0.33 1.32 0.66 2.64 1 4 C-4.4976669 9.63222518 -10.89322626 13.51402889 -17.58837891 17.52636719 C-44.7904794 33.22485322 -68 54 -68 54 C-73.26092374 61.05020229 -72.75823869 67.69176673 -72 74 C-59.17927786 90.5854396 -49.99609375 95.8125 -49.99609375 95.8125 C1.1809947 117.06435876 27.71118164 124.38623047 27.71118164 124.38623047 C89.3270065 141.97337856 143 166 143 166 C159.09208332 173.81793706 183 190 183 190 C218.90099414 215.31552931 244.11832675 244.67205163 263.5 281.125 C271.2674477 295.99528326 270.71386719 300.14477539 270.71386719 300.14477539 C238.99421273 314.77716432 176 309 176 309 C142.3549336 302.90260156 96.18017578 262.59277344 75 237 C59.88671875 221.63671875 40 204 40 204 C7.26726616 178.17620964 -61.13037109 146.27832031 -83 136 C-83 136 -82.74093914 192.79723549 -82.74093914 192.79723549 L -82.52955753 242.15665758 L -82.43446159 265.78674316 C-82.24903825 281.87342999 -85.09797668 285.69271851 -85.09797668 285.69271851 C-90.83101671 290.25082701 -103.19506836 291.41992188 -103.19506836 291.41992188 L -161.1820507 291.62034607 C-178.41089832 291.77398274 -185 286 -185 286 C-190.15176159 277.00118584 -190.18081665 263.36604309 -190.18081665 263.36604309 L -190.54844093 202.67587757 L -190.88746679 137.5540573 L -190.98213577 121.49695778 L -191.03626251 99.3854599 C-191.32150411 86.93690909 -188.08024216 82.18623924 -188.08024216 82.18623924 C-185.81328327 80.12334905 -181 77 -181 77 C-123.83303983 41.40868773 -22.88769531 4.91137695 -22.88769531 4.91137695 C-8.57314838 0.23048687 0 0 0 0 Z" fill="#E07C2E" transform="translate(495,449)"/>
</svg>
